#tb 0: 1/25
#media_type 0: video
#codec_id 0: rawvideo
#dimensions 0: 352x288
#sar 0: 0/1
0,          0,          0,        1,   152064, 0x2be53169
0,          1,          1,        1,   152064, 0x4e851b18
0,          2,          2,        1,   152064, 0x3920adab
0,          3,          3,        1,   152064, 0xee3d4153
0,          4,          4,        1,   152064, 0xcd54743d
0,          5,          5,        1,   152064, 0x562969cf
0,          6,          6,        1,   152064, 0xde9c35e5
0,          7,          7,        1,   152064, 0x1ff24a21
0,          8,          8,        1,   152064, 0x30f33fec
0,          9,          9,        1,   152064, 0x5d6bee92
0,         10,         10,        1,   152064, 0x9c23fe63
0,         11,         11,        1,   152064, 0x6c8cbb8c
0,         12,         12,        1,   152064, 0x07925eee
0,         13,         13,        1,   152064, 0x4dc259ff
0,         14,         14,        1,   152064, 0x3c934607
0,         15,         15,        1,   152064, 0x45a0d528
0,         16,         16,        1,   152064, 0x7e571135
0,         17,         17,        1,   152064, 0xbe63f272
0,         18,         18,        1,   152064, 0x91e820b1
0,         19,         19,        1,   152064, 0x8d739bf3
0,         20,         20,        1,   152064, 0x1f16adf8
0,         21,         21,        1,   152064, 0xc6f0d6b9
0,         22,         22,        1,   152064, 0x5a8bce80
0,         23,         23,        1,   152064, 0xa78620bd
0,         24,         24,        1,   152064, 0x0036b698
0,         25,         25,        1,   152064, 0xfdc05491
0,         26,         26,        1,   152064, 0xd40b5123
0,         27,         27,        1,   152064, 0x7e708be9
0,         28,         28,        1,   152064, 0x5f8f570a
0,         29,         29,        1,   152064, 0xd13e19d2
0,         30,         30,        1,   152064, 0x9c532543
0,         31,         31,        1,   152064, 0x683c79a0
0,         32,         32,        1,   152064, 0x7b81b6fa
0,         33,         33,        1,   152064, 0x5fcf4450
0,         34,         34,        1,   152064, 0xb349f92e
0,         35,         35,        1,   152064, 0xff8a4b37
0,         36,         36,        1,   152064, 0xe698e8df
0,         37,         37,        1,   152064, 0x5913c16c
0,         38,         38,        1,   152064, 0x410a13d8
0,         39,         39,        1,   152064, 0x3201fc1a
0,         40,         40,        1,   152064, 0xbb6b0da6
0,         41,         41,        1,   152064, 0xc4915154
0,         42,         42,        1,   152064, 0x2520773a
0,         43,         43,        1,   152064, 0x0c97cdd4
0,         44,         44,        1,   152064, 0xadf7b240
0,         45,         45,        1,   152064, 0xf81b3805
0,         46,         46,        1,   152064, 0x3dc71064
0,         47,         47,        1,   152064, 0x93b979bb
0,         48,         48,        1,   152064, 0x4b3c65c9
0,         49,         49,        1,   152064, 0x32838895
